<svg xmlns="http://www.w3.org/2000/svg" viewBox="0 0 48 48"><defs><style>.cls-1{fill:#ffbc5a;}.cls-2{fill:#ef9d3a;}.cls-3{fill:#505572;}.cls-4{fill:#231f20;}</style></defs><title>Pound sterling</title><g id="Pound_streling" data-name="Pound streling"><circle class="cls-1" cx="24" cy="24" r="22"/><circle class="cls-2" cx="24" cy="24" r="18"/><path class="cls-1" d="M24,39A15,15,0,1,1,39,24,15.0167,15.0167,0,0,1,24,39Z"/><path class="cls-3" d="M30,33H18a1,1,0,0,1-.8579-1.5137c.0278-.0469,2.7734-4.7,1.8877-8.2441-.1572-.6289-.5635-2.5342-.5635-2.5342A6.3414,6.3414,0,1,1,31,19.3418V20a1,1,0,0,1-2,0v-.6582a4.3415,4.3415,0,1,0-8.58.9414c.0024.0107.3965,1.8623.55,2.4746.7437,2.9756-.4561,6.3408-1.3311,8.2422H30a1,1,0,0,1,0,2Z"/><path class="cls-3" d="M23,25H16a1,1,0,0,1,0-2h7a1,1,0,0,1,0,2Z"/><path class="cls-4" d="M24,1A23,23,0,1,0,47,24,23.0259,23.0259,0,0,0,24,1Zm0,44A21,21,0,1,1,45,24,21.0239,21.0239,0,0,1,24,45Z"/><path class="cls-4" d="M24,5A19,19,0,1,0,43,24,19.0216,19.0216,0,0,0,24,5Zm0,36A17,17,0,1,1,41,24,17.019,17.019,0,0,1,24,41Z"/><path class="cls-4" d="M24.6587,13a6.3407,6.3407,0,0,0-6.1924,7.708s.3244,1.521.5054,2.292H16a1,1,0,0,0,0,2h3.1946a15.9586,15.9586,0,0,1-2.0525,6.4863A1,1,0,0,0,18,33H30a1,1,0,0,0,0-2H19.6392a16.025,16.025,0,0,0,1.5588-6H23a1,1,0,0,0,0-2H21.0114c-.0172-.08-.0213-.1625-.0412-.2422-.1533-.6123-.5474-2.4639-.55-2.4746A4.3415,4.3415,0,1,1,29,19.3418V20a1,1,0,0,0,2,0v-.6582A6.3486,6.3486,0,0,0,24.6587,13Z"/></g></svg>